<?xml version="1.0" encoding="UTF-8"?>
<svg id="Layer_1" xmlns="http://www.w3.org/2000/svg" width="64" height="64" viewBox="0 0 64 64">
  <g id="Layer_2-2">
    <circle id="bg" cx="32" cy="32" r="32" fill="#010101"/>
    <g id="black">
      <path d="M41.74,48.36h-.27c-.42-.15-.89-.24-1.26-.47-.79-.49-1.56-1.03-2.3-1.59-.24-.18-.36-.18-.57,0-.57.49-1.15.98-1.74,1.44-.49.38-1.07.62-1.7.47-.45-.11-.87-.36-1.35-.56,0,0-.04.04-.09.08-.05.04-.1.09-.16.13-.84.59-1.7.48-2.5-.03-.66-.43-1.25-.95-1.84-1.47-.25-.22-.4-.29-.67-.05-1.04.94-2.18,1.73-3.58,2.04h-.62c-.57-.16-1.04-.49-1.5-.85-.26-.2-.59-.34-.92-.43-.37-.11-.66-.29-.9-.59-.35-.44-.7-.88-1.06-1.3-.35-.4-.47-.85-.32-1.37.17-.58.35-1.16.52-1.74.15-.49.06-.79-.38-1.05-.36-.22-.56-.52-.66-.91-.06-.22-.1-.45-.16-.66-.13-.43-.37-.57-.8-.45-.42.11-.83.26-1.26.34-1.19.23-2.32.12-3.28-.73-.19-.17-.38-.33-.58-.47-1.28-.89-2.09-2.16-2.47-3.6-.36-1.33.03-2.66.61-3.91.32-.7.63-1.42.79-2.17.09-.41.12-.84.29-1.24.16-.38,0-.61-.41-.65-.94-.1-1.24-.35-1.43-1.26-.07-.32-.22-.56-.55-.68-.7-.25-1.04-.75-1.02-1.49,0-.28-.09-.47-.34-.62-.47-.28-.73-.71-.84-1.24-.05-.23-.09-.46-.13-.69v-.34s.05-.1.06-.15c.07-.75.45-1.28,1.14-1.58.41-.18.82-.34,1.23-.52.46-.21.86-.15,1.22.22.18.18.36.37.57.49.24.14.51.27.78.3.55.06,1.12.11,1.67.07.5-.03,1.02-.14,1.49-.3.48-.17.93-.24,1.44-.16.29.04.64.02.89-.11.45-.24.89-.31,1.38-.23.56.09.93-.11,1.14-.65.3-.75.78-1.36,1.31-1.95.42-.46.95-.61,1.55-.54.84.1,1.61.4,2.36.79.71.38,1.46.69,2.18,1.06.61.32,1.11.24,1.63-.19.57-.47,1.22-.54,1.89-.16.13.07.3.11.45.11.31,0,.53.14.68.39.14.23.27.48.4.72.27.51.55,1.01.84,1.56.09-.16.16-.28.23-.4.3-.54.59-1.08.89-1.62.22-.4.51-.71,1.03-.65.07,0,.16-.02.23-.06.76-.47,1.45-.33,2.11.21.44.35.93.39,1.44.13.59-.3,1.17-.62,1.78-.89.71-.32,1.43-.68,2.18-.89.71-.21,1.48-.18,2.07.38.56.54,1.05,1.14,1.36,1.87.3.71.59.88,1.36.77.4-.06.77-.02,1.12.2.31.19.65.26,1.02.17.45-.11.88-.1,1.3.12.54.29,1.12.38,1.72.35.42-.02.84-.1,1.26-.07.48.04.88-.06,1.22-.39.16-.15.32-.3.47-.45.33-.34.71-.37,1.13-.18.34.16.67.37,1.03.45.84.18,1.23.73,1.35,1.52.16.97.03,1.85-.83,2.48-.31.23-.42.56-.45.92-.05.53-.26.98-.76,1.17-.49.18-.69.51-.83.99-.24.84-.56,1.04-1.39,1.05-.14,0-.34.11-.41.22-.06.1,0,.29.03.43.08.25.23.48.27.72.12.75.28,1.47.61,2.16.26.55.49,1.13.67,1.72.28.92.45,1.87.15,2.8-.36,1.08-.87,2.09-1.72,2.88-.42.4-.92.71-1.36,1.09-.86.77-1.87.97-2.97.79-.49-.08-.97-.24-1.46-.37-.52-.14-.78,0-.91.53-.05.2-.09.4-.14.6-.1.37-.29.66-.63.86-.47.29-.58.56-.41,1.09.16.5.31,1,.48,1.5.23.69.05,1.27-.45,1.79-.27.28-.52.58-.74.89-.29.41-.66.68-1.14.83-.22.07-.45.14-.62.27-.63.49-1.31.86-2.11.97h0Z" fill="#010101"/>
    </g>
    <g id="inner">
      <path d="M47.29,20.15c.23.28.45.23.64.12.62-.45,1.24.16,1.89.04,1.67.13,3.32-.33,4.85.38.56.25.78.88.51,1.43-.5.74-1.32-.2-2,.15-.38-.02-.93-.54-.97.18.08.33-.44,1.14.05,1.2.93-.55,3.23-.04,3.42-1.01.07-.74,2.29-2.16.35-2-.35.26-.57.05-.6-.31.05-1.3,2.55-.48,2.32.6.08,1.06-1.58,1.33-1.36,2.26.23.27.21.52-.1.69-.68.18-1.27.36-1.33,1.17-.63,1.58-1.6-1.62-2.25-.35-.71,1.38.92,2.66.41,3.9-.38.48-.4.97.05,1.38.12,1.21,2.89,2.67,1.22,3.69-3.93,6.15-6.84,1.85-8.89,6.09.04,1.27-1.09.72-1.54.1-.3.12-.81.44-.42.77.37.18.5.49.49.86-.23,1.13,1.85,1.99.49,2.86-1.14.94-2.96,2.69-4.34,1.33-3.07-1.88-2.66-2.23-5.24.6-2.13,1.62-1.61-2.93-.84-.83-.27.7.67.74.67.22.38-3.62-5.25-2.99-4.17.28.91.44.15-1.52,1.06-.95.65,3.8-2.82-.42-4.04-.95-2.99,1.76-3.65,3.46-6.93.3-1.4-.84.73-1.75.48-2.88-.22-.68,1.04-.8.54-1.34-.43-.42-.55-.41-.86.1-.25.57-1.2.35-1.13-.29-1.09-3.88-5.87-1.26-7.69-4.78-2.15-2.99-2.42-1.46-.14-4.75.12-.54.79-.97.34-1.53-.89-1.31,1.5-3.26-.04-4.46-2.81,2.2-.91.41-2.91-.44-1.11-.13-.26-.72-.46-1.2-.76-.64-2.26-2.11-.76-2.79.73-.59,2.31-.21,1.51.78-.45-.21-1.74-.23-1.02.59.92.34.72,1.96,1.64,1.86,1.25-.55,3.46,1.63,2.8-.81-.27-.9-2.38.5-2.94-.25-.47-2.74,3.68-1.6,5.3-1.85.89-.07,1.59-.26,2.47.05-.56-.59-.8-1.38.58-.8.48.43.96,1.58,1.63.75.67-.52.32-2.76,1.19-2.54.29.3.43-.13.56-.34.85-1.47,5.26,1.62,6.14,2.51.31.16.68,0,.51-.39-.41-.66.74-.59.49-1.24.05-1,1.11.49,1.63.02.63-.17.29,1,.92,1.56-.11.73,1.2.92.75,1.55-1.16.86-1.63-1.56-2.19-2.23-.61-.51-.39.6-.92.59-1.19,1.37,3.43,1.34,1.8,2.66-.64.15-.07.68-.25,1.05-.92.88-2-.39-1.61-1.45.36-.82-1.04-1.41-1.62-1.85-.34-.18-.61.1-.48.42-.63,2.38,1.31.28,1.6,1.98-.49,4.37,6.13,5.53,7.8,1.87-.09-4.33,2.6-1.44,1.85-3.45.06-1.95-1.3-.08-2.07.39-.38.44.35,1.28-.15,1.85-.25.78-1.82.71-1.5-.18.48-.71-.93-.52-.53-1.21.15-1.08,3.24-.87,1.99-2.11-.68-.63-.58-1.28-1.26.21.09,1.12-2.41,2.55-1.65.84.9-.27.95-2.91,1.67-2.46.44.36,1.49-1.03,1.51-.07-.09.32.03.49.3.62.28.13.34.35.18.62-.31,1.07,1.07.07,1.24-.41,1.23-.7,2.7-1.14,3.91-1.98,1.21-.98,1.37.94,2.16.57.78.3.53,1.87,1.08,2.53.65.91,1.23-.25,1.72-.7.83-.59,1.71.36.43.62h0ZM30.2,37.34c-.49-.09-.45.39-.64.69-.6.59.25,1.15.11,1.79.22,1.81,2.18,3.85,4.12,2.8,1-.95,1.81-1.99,1.8-3.37.53-.63.07-1.57-.41-1.88-.36-.07-.88.27-1.09-.18-.28-.52.91-.59.37-1.08-1-1.07-2.43-1.07-3.56-.14-1.05.47,1.65,1.57-.71,1.38h0ZM32.66,28.53c-.48.22-2.65.3-1.69,1.04.51.73-1.59.74-1.73,1.54-.13,1.04,1.14.6,1.5,1.31.58.68,1.35,2.49,2.42,1.65.85-.56,1.08-1.95,2.12-2.13,1.65-.39.01-1.72-.89-1.86-.76-.98,1.63-.71-1.73-1.55h0ZM50.7,28.96c2.34.06,1.78-4.79-.84-3.7-2.55-.56-2.87,1.6-4.38,2.94-.64.46.46,1.18.81.73.9-.31,1.93-1.72,2.87-.95.53.62.59,1.84,1.54.99h0ZM14.68,25.15c-2.49.22-1.96,4,.33,4.09,2.07-1.86.96-2.02,3.86-.35.34.27.65.26.99-.14.15-.9-1.43-1.21-1.48-2.25-.49-1.76-2.41-.97-3.7-1.35h0ZM28.82,25.86c-.83-2.35-2.97-2.27-5.06-2.05-1.21-.56-1.51,1.85-2.47.9-.77-1.52-4.69,1.76-1.77.66,1.02-.66,1.2.94,2.14.75,1.11-.56,2.06,0,3.19-.19,1.34-.1,2.77-.2,3.97-.07h0ZM36.38,25.86c2.07-.08,4.48-.05,6.6.14,1.03.69,1.35-.72,2.21-.76,3.73,1.49-.25-2.07-1.28-.52-.82.91-1.12-1.06-2-.95-2.24-.14-4.59-.41-5.52,2.1h0ZM24.27,40.81c.41-.97,1.48-.78,2.12-1.43.31-.79,1.63.09,1.39-.96-.11-1.98-3.01-1.42-4.45-1.38-3.06-.12-.51,3.07.93,3.77h0ZM40.97,40.76c1.42-.6,3.92-3.88.9-3.72-1.41-.08-4.48-.61-4.45,1.45-.05.4.12.55.5.5.98.22,2.24,1.03,3.04,1.77ZM40.63,27.69c-1.31,2.57.32,3.26-3.83,3.33-.16.13-.14.37.13.36,2.42.32-2.8,1.27-1.57,2.56,1.18,1.56,2.69-1.18,3.69-1.95.52-.88,1.05.29,1.61.32.37-.04.54.11.7.37.57.66,1.4-.73,2.02-.93.41-.93-1.69-1.26-2.41-1.01-1.05-.2-.21-2.21-.35-3.05h0ZM21.66,31.6c.71.27,1.74,1.95,2.33.88.88.01,1.51-1.35,2.17-.49,3.48,4.76,5.66.93,1.66,0-.8-.51.43-.62.73-.71-1.78-1.24-3.45.83-3.61-3-.85-1.95.41,2.5-.63,2.46-.92-.2-2.12-.07-2.65.86h0ZM52.76,33.85c-.01-1.59-1.41-1.39-2.47-1.33.43,1.04-1.29,1.33-1.33,2.45.33,1.35,3.87.38,3.8-1.12h0ZM12.48,33.91c.02,1.45,3.04,2.32,3.8,1.16-.06-1.13-1.68-1.47-1.38-2.57-1.08-.01-2.58-.2-2.43,1.41h0ZM19.92,23.93c3.74-3.28,2.28-5.44-1.52-1.77-.37,1.15,1.27.9,1.52,1.77ZM46,23.31c1.46-.33.69-1.84-.43-2.05-.82-.09-1.25-1.76-2.17-.95-.75,1.18.73,2.59,1.54,3.4.74.59.45-.69,1.06-.39h0ZM26.05,36.82c.56,0,3.6-.33,2.35-1.27-.98-.02-1.74,1.45-2.68.71-.27-.25-1.21-.44-.8-.91.59-.5,1.86-.42,2-1.37-1.53-.77-2.99,1.39-4.07,2.28-.33.59,2.56.16,3.21.55h0ZM42.52,36.57c-1.89-3.2-6.73-3.43-2.85-1.51.36.03,1.08.48.51.8-1.42,1.3-2.11-.1-3.45-.31-.81,2.15,4.47.77,5.79,1.03h0ZM42.06,18.13c-1.05.44-1.5.83-1.1,2.18.03.73-.41,1.68.72,1.62,1.61.08.18-1.7,1.19-2.12.72-.42-.7-1.15-.81-1.68h0ZM24.37,19.77c-.04-.89-.05-1.32-.97-1.45-.54-.33-.64.81-1.16.96-.52.58,1.03.65.43,1.67-.35.98,1.16,1.25,1.66.7.14-.7-.24-1.23.05-1.87ZM44.19,34.82c1.28,4.36-.26,1.66-.2,3.93.97.78,1.66-.62,2.18-1.26.44-.63-.45-.97-.85-1.29-.5-.35-.56-1.18-1.13-1.37h0ZM21.07,34.88c-.7.1-.9,1.52-1.82,1.74-.88.71.85,2.78,1.77,2.25,1.21-.86-1.4-1.29-.39-2.38.26-.51.36-1.06.43-1.61ZM45.34,26.08c-1.96.58-1.69,7.4-.03,3.68-1.55-.41-.78-.86-.52-1.98.4-.5,1.63-1.22.54-1.69h0ZM21.24,29.04c.51-1.07-1.99-4.4-1.69-2.13.74.47.89,1.2,1.22,1.87.57.61-.55.75-.85.96.49,2.14,1.69.95,1.32-.69h0ZM46.93,34.55c1.12-.95,1.97-2.34-.26-2.03-.35.35-1.38-.54-1.22.28.07.87.68,1.38,1.48,1.75h0ZM18.29,34.53c.86-.34,1.53-1.04,1.46-1.97-.37-.32-.79.27-1.19-.02-.36,0-1.61-.18-1.51.36.52.48.55,1.47,1.24,1.63h0ZM35.69,42.11c.3.54.24,1.61.8,1.85.33-.22,1.33-.43.94-.96-.48-.71-1.06-2.66-1.74-.88h0ZM29.47,42.26c-.15-2.22-2.19.56-1.58,1.27,1.17,1.06,1.31-.46,1.58-1.27ZM46.82,29.72c-.47-.13-.76.5-.94.9-.5.82,1.43.56,1.88.42.75-.3-.17-1.78-.94-1.32ZM18.55,31.22c1.57.07.66-1.48-.36-1.55-.93-.26-1.76,1.75.36,1.55ZM41.35,29.24c4.2-.72.98-2.25-.16-1.21.06.36-.47,1.25.16,1.21h0ZM31.49,28.1c-.5-1.47-2.13-1.3-2.08.13.39,1.01,1.53.49,2.08-.13ZM23.74,29.23c.79.12.21-.7.27-1.12-.23-1.1-4.83.2-.27,1.12ZM35.86,27.85c-.82-1.7-2.63-.28-1.71.64.67.38,1.68.42,1.71-.64ZM48.44,23.41c.67-.12,1.46.17,1.38-.8-.49-1.17-3.34.13-1.38.8ZM16.36,22.17c-.66-.17-1.5.68-.67,1.13,1.4.63,2.77-1.06.67-1.13ZM27.38,27.77c-2.12-.1-.35,1.96.85,1.03.68-.64-.2-1.1-.85-1.03ZM37.84,27.79c-.37.05-1.09-.08-1.15.52.36,1.9,3.9-.46,1.15-.52ZM32.6,26.98c-1.65-.3-.84,1.66.4,1.24.86-.41.69-1.55-.4-1.24ZM41.26,41.75c.48.92.79,2.32,1.73,2.77.2-.49-1.23-3.54-1.73-2.77ZM23.56,41.48c-.96,1.14-2.25,4.89-.26,1.65.12-.48,1.09-1.41.26-1.65ZM22.68,44.93c.6.14,1.08-.28,1.23-.83.08-.67.64-1.07.93-1.63-.39-1.14-1.62,1.97-2.16,2.46ZM42.48,44.9c-.22-.5-2.7-4.46-1.89-2.06.76.57.61,2.4,1.89,2.06ZM50.85,31.58c-1.57.03-3.2,0-4.73.14.5.6,1.51.02,2.25.26.68-.19,2.27.3,2.48-.41ZM14.31,31.64c.54.68,1.94.12,2.77.37,4.87-.22-1.28-.56-2.77-.37ZM30.53,33.84c.24.8,1.3,1.97,1.47.65-.41-.21-1.17-1.46-1.47-.65ZM34.68,33.78c-.07-.23-.23-.29-.41-.16-2.06,1.2-.06,2.35.41.16ZM49.22,33.43c-.82-.46-2.63,2.3-1.07,1.68.31-.7.57-1.05,1.07-1.68ZM16.23,33.23c-.34.52.39.87.55,1.35,1.18,1.84,1.21-.47-.55-1.35ZM50.87,29.97c-1.2.2-1.61,1.87-.28.86.94-.14.9.13.28-.86ZM15.78,30.79c-.81-.84-2.31-.73-1.74.06.8-.47.75,1.01,1.74-.06ZM37,41.06c.95,1.74,1.83,2.29.5.04-.1-.18-.27-.25-.5-.04ZM21.89,34.15c.73-.22.4-.95-.22-1.01-.36.3-.55,1,.22,1.01ZM43.9,33.57c-.23-.67-.88-.35-1.06.19.14.44,1.13.6,1.06-.19ZM28.17,41.08c-.39-.51-1.44,1.49-1.09,1.76.36-.57.67-1.17,1.09-1.76ZM41.98,33.21c.28.24.51.15.69-.02,1.94-1.29.43-1.13-.69.02ZM21.62,32c-.39.46.69.97,1.04,1.26,1.31.29-.66-.97-1.04-1.26ZM25.75,44.56c.7-.04,1.28-.66.9-1.19-.43.16-.56.79-.9,1.19ZM39.45,44.57c-.34-.45-.45-.95-.9-1.2-.34.58.17,1.16.9,1.2ZM39.11,19.72c-.45.55-.23,1.16-.39,1.74.42-.15.58-.98.39-1.74h0ZM51.61,22.09c-.44.1-.5,1.31-.3,1.73.42-.45.26-1.16.3-1.73ZM13.95,23.9c.16-.64-.04-1.64-.33-1.82.02.6-.16,1.39.33,1.82ZM26.07,19.77c-.14.86,0,1.57.33,1.66.12-.54-.04-1.4-.33-1.66ZM25,20.67c.25-.21.13-1.34-.21-1.57.19.54-.27,1.08.21,1.57ZM40.38,19.16c-.3,0-.58,1.36-.17,1.5.47-.47.03-1.01.17-1.5ZM25.59,40.75c-.66.07-.93.47-.61,1.01.35-.08.36-.65.61-1.01ZM40.1,41.78c.62-.35.13-1.06-.45-.96.15.32.3.62.45.96ZM39.72,27.65c-.32.13-.49.77-.37,1.26.28-.4.21-.83.37-1.26ZM50.31,23.26c.22-.13.39-.78.33-1.15-.23.09-.36.53-.33,1.15ZM14.45,22.09c.19.42.09.86.41,1.24.09-.6-.06-1.14-.41-1.24h0ZM25.58,27.69c.04.39,0,.81.29,1.13-.02-.4.06-.82-.29-1.13Z" fill="#292b2b"/>
      <path d="M32.58,25.29c-.55-.27-2.01-.5-1.6-1.37.79-.1,1.89.93,2.85-.02,1.49.1-.59,1.42-1.25,1.39Z" fill="#292b2b"/>
    </g>
  </g>
</svg>