<?xml version="1.0" encoding="UTF-8"?>
<svg id="Layer_2" xmlns="http://www.w3.org/2000/svg" width="931.55" height="931.55" viewBox="0 0 931.55 931.55">
  <style>
    #inner {
      fill: #aed8e6; 
      <!-- animation: flicker 100ms infinite alternate; -->
    }
    @keyframes flicker {
      0% {
        filter: brightness(1);
      }
      100% {
        filter: brightness(3);
      }
    }
  </style>
  <g id="Layer_2-2" data-name="Layer_2">
    <circle id="bg" cx="465.77" cy="465.77" r="465.77" fill="#fff"/>
    <g id="black">
      <path d="M607.55,703.95h-3.99c-6.17-2.22-12.93-3.49-18.4-6.85-11.55-7.09-22.65-14.99-33.47-23.16-3.48-2.63-5.26-2.56-8.32.07-8.3,7.14-16.68,14.22-25.37,20.89-7.2,5.52-15.64,8.97-24.7,6.84-6.6-1.55-12.71-5.17-19.66-8.13.07-.06-.65.59-1.38,1.22-.75.65-1.47,1.36-2.28,1.93-12.24,8.61-24.8,7.01-36.39-.5-9.54-6.19-18.23-13.79-26.79-21.34-3.63-3.2-5.84-4.23-9.8-.67-15.19,13.65-31.69,25.16-52.12,29.71h-8.99c-8.28-2.38-15.12-7.11-21.85-12.37-3.8-2.97-8.65-4.97-13.35-6.32-5.39-1.56-9.61-4.17-13.05-8.52-5.05-6.39-10.16-12.74-15.5-18.89-5.11-5.89-6.9-12.39-4.7-19.88,2.47-8.44,5.05-16.85,7.59-25.26,2.17-7.17.87-11.48-5.5-15.28-5.25-3.13-8.2-7.6-9.66-13.29-.83-3.21-1.42-6.5-2.37-9.67-1.88-6.28-5.35-8.24-11.71-6.62-6.11,1.56-12.1,3.72-18.28,4.9-17.37,3.31-33.78,1.75-47.74-10.63-2.72-2.41-5.52-4.8-8.51-6.86-18.66-12.9-30.41-31.38-36.02-52.37-5.17-19.32.47-38.68,8.84-56.96,4.67-10.19,9.11-20.72,11.57-31.57,1.37-6.02,1.76-12.25,4.26-18.12,2.32-5.47,0-8.83-5.96-9.44-13.74-1.41-18-5.1-20.86-18.37-1.02-4.72-3.18-8.15-8.01-9.85-10.16-3.58-15.14-10.98-14.83-21.72.12-4.13-1.37-6.86-4.92-8.98-6.8-4.06-10.69-10.28-12.25-17.98-.68-3.35-1.25-6.73-1.87-10.09,0-1.66,0-3.33,0-4.99.28-.72.76-1.42.82-2.16.96-10.96,6.52-18.6,16.59-22.96,5.94-2.57,11.99-4.89,17.88-7.57,6.71-3.06,12.49-2.18,17.71,3.13,2.56,2.6,5.18,5.34,8.28,7.14,3.49,2.02,7.46,3.88,11.4,4.34,8.07.94,16.3,1.6,24.38,1.06,7.33-.5,14.8-2,21.73-4.43,6.97-2.46,13.57-3.46,20.92-2.39,4.21.61,9.35.34,12.95-1.61,6.57-3.56,12.94-4.48,20.13-3.34,8.2,1.3,13.59-1.66,16.64-9.4,4.31-10.91,11.35-19.84,19.11-28.35,6.09-6.68,13.86-8.95,22.6-7.87,12.18,1.5,23.43,5.77,34.28,11.51,10.4,5.5,21.32,10.01,31.75,15.47,8.81,4.61,16.11,3.47,23.75-2.82,8.27-6.8,17.69-7.79,27.46-2.38,1.93,1.07,4.39,1.63,6.61,1.65,4.48.04,7.68,1.98,9.91,5.61,2.08,3.39,3.93,6.93,5.83,10.43,4,7.38,7.96,14.77,12.25,22.74,1.36-2.39,2.36-4.09,3.31-5.83,4.31-7.86,8.59-15.74,12.91-23.61,3.23-5.89,7.38-10.28,14.94-9.4,1.06.12,2.35-.31,3.29-.89,11.07-6.84,21.06-4.75,30.76,3.08,6.4,5.16,13.56,5.68,21,1.84,8.56-4.42,17.07-8.97,25.84-12.95,10.39-4.72,20.76-9.84,31.66-13.02,10.39-3.02,21.47-2.66,30.07,5.49,8.22,7.79,15.27,16.64,19.76,27.27,4.39,10.39,8.63,12.78,19.84,11.18,5.81-.83,11.18-.22,16.29,2.93,4.54,2.8,9.51,3.76,14.83,2.43,6.49-1.62,12.87-1.47,18.92,1.73,7.88,4.17,16.3,5.55,25.1,5.04,6.12-.36,12.28-1.46,18.33-1.01,6.97.52,12.82-.9,17.82-5.73,2.27-2.19,4.6-4.31,6.81-6.56,4.85-4.93,10.34-5.43,16.42-2.64,4.98,2.28,9.79,5.43,15.03,6.57,12.25,2.68,17.84,10.57,19.71,22.11,2.29,14.14.4,26.89-12.03,36.14-4.51,3.36-6.05,8.18-6.56,13.46-.73,7.65-3.8,14.25-11.11,17.02-7.12,2.69-10.11,7.44-12.05,14.36-3.44,12.26-8.13,15.18-20.29,15.24-2.09.01-4.9,1.55-6.04,3.27-.91,1.39-.12,4.21.5,6.21,1.11,3.58,3.32,6.92,3.9,10.55,1.75,10.86,4.04,21.43,8.81,31.5,3.82,8.06,7.08,16.47,9.69,25,4.07,13.32,6.58,27.23,2.12,40.72-5.18,15.66-12.67,30.47-25.02,41.96-6.18,5.75-13.45,10.31-19.75,15.93-12.55,11.21-27.18,14.17-43.2,11.43-7.17-1.23-14.18-3.46-21.22-5.37-7.56-2.05-11.29.06-13.18,7.7-.72,2.9-1.28,5.84-2.03,8.73-1.39,5.36-4.27,9.65-9.1,12.58-6.89,4.18-8.38,8.21-5.97,15.88,2.29,7.28,4.58,14.56,6.94,21.82,3.28,10.06.73,18.5-6.56,25.99-3.92,4.03-7.58,8.4-10.8,13.01-4.2,6.01-9.63,9.91-16.53,12.13-3.14,1.01-6.54,1.99-9.06,3.95-9.2,7.13-19.06,12.56-30.76,14.11Z"/>
    </g>
    <g id="inner">
      <path d="M688.27,293.26c3.4,4.09,6.57,3.37,9.26,1.71,9.04-6.59,18.02,2.28,27.58.51,24.26,1.92,48.37-4.78,70.59,5.49,8.13,3.68,11.39,12.84,7.39,20.86-7.23,10.71-19.21-2.91-29.05,2.25-5.56-.26-13.54-7.87-14.1,2.65,1.16,4.78-6.41,16.62.74,17.41,13.47-7.99,47.01-.56,49.8-14.64,1.01-10.77,33.28-31.48,5.14-29.04-5.12,3.8-8.32.67-8.76-4.5.75-18.91,37.14-7.01,33.73,8.73,1.23,15.38-22.93,19.38-19.78,32.86,3.4,3.87,3.04,7.64-1.5,9.98-9.83,2.64-18.43,5.19-19.39,17.05-9.12,23.04-23.26-23.51-32.78-5.08-10.39,20.02,13.35,38.65,6.04,56.77-5.49,6.94-5.75,14.06.75,20.1,1.72,17.61,42.1,38.85,17.71,53.76-57.2,89.55-99.49,26.87-129.38,88.61.53,18.42-15.86,10.44-22.42,1.43-4.38,1.74-11.79,6.34-6.07,11.27,5.45,2.68,7.27,7.18,7.14,12.59-3.28,16.42,26.98,29.03,7.13,41.63-16.55,13.74-43.09,39.09-63.22,19.34-44.7-27.42-38.69-32.52-76.21,8.67-30.98,23.55-23.44-42.68-12.17-12.05-3.96,10.2,9.81,10.83,9.75,3.18,5.59-52.73-76.39-43.48-60.76,4.08,13.29,6.42,2.15-22.13,15.47-13.77,9.43,55.25-41.08-6.09-58.79-13.78-43.52,25.59-53.06,50.39-100.9,4.38-20.37-12.24,10.67-25.4,6.99-41.95-3.27-9.87,15.2-11.67,7.86-19.46-6.22-6.12-8.06-5.9-12.58,1.46-3.69,8.25-17.41,5.07-16.47-4.28-15.81-56.43-85.4-18.3-111.91-69.64-31.33-43.47-35.19-21.23-2.11-69.2,1.73-7.8,11.47-14.09,5.01-22.27-13.02-19.13,21.82-47.45-.52-64.94-40.9,32.05-13.27,5.95-42.35-6.46-16.16-1.91-3.76-10.5-6.67-17.49-11.01-9.3-32.86-30.69-11.04-40.66,10.57-8.62,33.57-3.08,21.99,11.36-6.51-3.06-25.35-3.36-14.89,8.53,13.46,4.93,10.42,28.51,23.82,27.04,18.21-7.98,50.37,23.7,40.69-11.76-3.95-13.03-34.62,7.31-42.86-3.65-6.88-39.9,53.62-23.27,77.21-26.91,12.94-1.05,23.17-3.77,36.02.66-8.09-8.64-11.62-20.04,8.44-11.6,6.93,6.22,13.92,22.94,23.76,10.89,9.78-7.61,4.62-40.11,17.36-37.01,4.29,4.32,6.19-1.83,8.17-4.9,12.35-21.34,76.58,23.63,89.42,36.47,4.56,2.35,9.95-.05,7.49-5.62-5.9-9.6,10.84-8.65,7.17-18.02.71-14.56,16.15,7.19,23.7.33,9.1-2.52,4.25,14.52,13.46,22.74-1.61,10.56,17.43,13.39,10.98,22.51-16.86,12.51-23.79-22.75-31.84-32.47-8.87-7.47-5.68,8.7-13.35,8.6-17.27,19.97,49.86,19.47,26.26,38.74-9.34,2.12-.95,9.97-3.67,15.22-13.36,12.76-29.16-5.71-23.47-21.11,5.31-11.89-15.15-20.52-23.52-26.87-4.99-2.64-8.94,1.46-6.96,6.06-9.13,34.63,19,4.06,23.28,28.8-7.06,63.54,89.24,80.54,113.59,27.22-1.34-63.01,37.84-21.02,26.95-50.22.87-28.45-18.85-1.19-30.07,5.63-5.5,6.46,5.14,18.6-2.19,26.98-3.71,11.33-26.53,10.38-21.78-2.56,6.98-10.32-13.59-7.59-7.66-17.59,2.22-15.65,47.19-12.64,28.92-30.7-9.86-9.19-8.45-18.61-18.27,3.07,1.25,16.3-35.02,37.13-24.01,12.29,13.06-3.92,13.79-42.3,24.26-35.86,6.43,5.25,21.65-14.99,21.99-1-1.31,4.72.37,7.12,4.42,9.02,4.06,1.9,4.91,5.07,2.66,9.02-4.58,15.54,15.56,1.04,18.03-5.93,17.9-10.22,39.29-16.61,56.94-28.89,17.56-14.29,19.94,13.65,31.41,8.3,11.32,4.36,7.75,27.26,15.69,36.89,9.5,13.28,17.95-3.64,24.97-10.24,12.01-8.66,24.82,5.18,6.31,9.02ZM439.6,543.47c-7.2-1.3-6.49,5.7-9.33,10.01-8.77,8.57,3.66,16.67,1.67,26.09,3.14,26.38,31.69,55.99,59.91,40.69,14.49-13.76,26.35-28.96,26.25-49.02,7.78-9.21,1.09-22.81-5.95-27.41-5.3-1.07-12.84,3.91-15.83-2.56-4.1-7.6,13.26-8.66,5.43-15.72-14.59-15.54-35.36-15.55-51.84-2.09-15.33,6.8,24.03,22.81-10.31,20.02ZM475.38,415.31c-7,3.27-38.62,4.43-24.67,15.12,7.49,10.65-23.13,10.77-25.14,22.38-1.85,15.13,16.63,8.75,21.84,19.1,8.45,9.85,19.67,36.19,35.23,23.96,12.3-8.15,15.77-28.44,30.83-31,23.99-5.66.19-24.99-12.97-27.05-11.02-14.27,23.72-10.38-25.11-22.51ZM737.97,421.58c34.02.9,25.85-69.7-12.26-53.88-37.15-8.13-41.76,23.25-63.75,42.72-9.37,6.72,6.64,17.16,11.73,10.63,13.14-4.58,28.09-24.97,41.83-13.82,7.67,9.05,8.54,26.78,22.44,14.36ZM213.71,366.03c-36.27,3.13-28.56,58.27,4.78,59.58,30.09-27.11,14.02-29.33,56.19-5.14,5.02,3.94,9.41,3.85,14.38-2.06,2.19-13.08-20.81-17.63-21.53-32.77-7.06-25.66-35.04-14.08-53.83-19.62ZM419.43,376.39c-12.07-34.24-43.17-33.02-73.68-29.91-17.68-8.12-22,26.92-35.94,13.1-11.25-22.15-68.27,25.59-25.74,9.67,14.87-9.65,17.44,13.72,31.16,10.94,16.12-8.08,29.92-.05,46.39-2.75,19.44-1.49,40.37-2.92,57.8-1.05ZM529.54,376.42c30.2-1.15,65.18-.72,96.05,1.97,15.05,9.99,19.61-10.5,32.15-11.05,54.32,21.62-3.6-30.19-18.67-7.59-11.98,13.26-16.37-15.5-29.12-13.87-32.59-2.02-66.79-6.02-80.41,30.55ZM353.25,594c5.99-14.18,21.55-11.31,30.87-20.87,4.45-11.5,23.74,1.33,20.27-14-1.65-28.82-43.84-20.69-64.7-20.03-44.6-1.79-7.38,44.7,13.57,54.9ZM596.35,593.3c20.74-8.72,57.08-56.44,13.13-54.16-20.58-1.12-65.24-8.91-64.79,21.14-.71,5.76,1.68,7.94,7.35,7.22,14.21,3.21,32.6,14.93,44.31,25.8ZM591.39,403.03c-19.12,37.35,4.62,47.41-55.68,48.45-2.36,1.93-2.03,5.33,1.88,5.26,35.22,4.66-40.77,18.55-22.88,37.26,17.11,22.71,39.22-17.19,53.76-28.43,7.56-12.8,15.3,4.25,23.5,4.72,5.36-.54,7.84,1.57,10.2,5.41,8.26,9.64,20.37-10.63,29.37-13.51,5.96-13.57-24.55-18.38-35.09-14.76-15.35-2.92-3.05-32.17-5.06-44.41ZM315.2,460.01c10.37,4,25.34,28.36,33.93,12.83,12.88.16,21.98-19.72,31.63-7.14,50.58,69.34,82.42,13.6,24.12.07-11.62-7.41,6.21-8.97,10.62-10.37-25.9-18.09-50.19,12.14-52.56-43.65-12.36-28.35,5.99,36.36-9.19,35.76-13.32-2.9-30.87-.96-38.55,12.49ZM767.93,492.77c-.2-23.19-20.48-20.18-36-19.35,6.24,15.18-18.83,19.39-19.35,35.72,4.76,19.69,56.39,5.53,55.35-16.36ZM181.69,493.61c.31,21.13,44.23,33.81,55.37,16.95-.94-16.46-24.43-21.44-20.03-37.43-15.69-.19-37.52-2.88-35.34,20.48ZM289.87,348.33c54.39-47.69,33.24-79.19-22.06-25.79-5.4,16.78,18.44,13.13,22.06,25.79ZM669.58,339.22c21.18-4.79,9.99-26.8-6.23-29.91-11.97-1.3-18.22-25.65-31.56-13.86-10.97,17.13,10.65,37.72,22.4,49.48,10.73,8.61,6.62-9.98,15.4-5.71ZM379.21,535.99c8.21.11,52.37-4.76,34.21-18.49-14.3-.33-25.27,21.13-39.06,10.4-3.88-3.61-17.58-6.35-11.63-13.23,8.62-7.21,27.02-6.11,29.11-19.87-22.23-11.28-43.58,20.28-59.29,33.14-4.82,8.56,37.19,2.37,46.65,8.05ZM618.82,532.23c-27.48-46.62-97.95-49.96-41.49-22.01,5.2.47,15.71,7.02,7.47,11.66-20.64,18.93-30.74-1.42-50.21-4.57-11.76,31.34,65.13,11.15,84.23,14.92ZM612.25,263.84c-15.24,6.4-21.89,12.07-15.98,31.72.42,10.69-5.91,24.43,10.53,23.54,23.37,1.12,2.58-24.81,17.29-30.84,10.47-6.18-10.19-16.71-11.85-24.42ZM354.66,287.78c-.58-13.02-.74-19.23-14.17-21.13-7.82-4.82-9.31,11.81-16.9,13.99-7.5,8.4,14.99,9.41,6.25,24.26-5.11,14.31,16.84,18.16,24.15,10.13,2.07-10.13-3.44-17.84.67-27.25ZM643.17,506.78c18.56,63.52-3.73,24.18-2.85,57.17,14.09,11.42,24.13-9.02,31.72-18.39,6.4-9.13-6.6-14.1-12.43-18.81-7.24-5.06-8.16-17.2-16.44-19.96ZM306.75,507.65c-10.15,1.47-13.12,22.07-26.44,25.37-12.77,10.3,12.36,40.41,25.82,32.69,17.63-12.5-20.31-18.82-5.62-34.58,3.73-7.36,5.3-15.39,6.24-23.48ZM659.88,379.59c-28.6,8.49-24.64,107.67-.38,53.5-22.56-5.91-11.29-12.49-7.51-28.89,5.87-7.33,23.69-17.76,7.89-24.62ZM309.11,422.69c7.42-15.57-28.99-64.05-24.62-31.07,10.74,6.79,12.91,17.46,17.79,27.22,8.32,8.87-7.99,10.96-12.32,13.95,7.08,31.19,24.55,13.79,19.16-10.1ZM683.15,502.87c16.28-13.76,28.63-34.1-3.78-29.51-5.09,5.15-20.03-7.88-17.82,4.07,1.01,12.6,9.83,20.13,21.61,25.44ZM266.23,502.53c12.56-4.93,22.31-15.12,21.19-28.67-5.44-4.71-11.45,3.97-17.27-.27-5.27-.03-23.48-2.66-21.99,5.2,7.61,6.92,7.99,21.42,18.08,23.73ZM519.48,612.89c4.37,7.86,3.56,23.44,11.68,26.86,4.74-3.18,19.36-6.26,13.66-14-7-10.35-15.46-38.67-25.34-12.86ZM428.88,615.08c-2.25-32.33-31.88,8.22-23.06,18.49,17.09,15.39,19.01-6.72,23.06-18.49ZM681.47,432.64c-6.9-1.93-11.02,7.35-13.7,13.15-7.35,11.87,20.88,8.16,27.4,6.06,10.86-4.3-2.51-25.85-13.7-19.21ZM269.95,454.47c22.83,1.06,9.65-21.47-5.21-22.51-13.58-3.79-25.55,25.45,5.21,22.51ZM601.91,425.67c61.2-10.55,14.28-32.75-2.34-17.64.82,5.26-6.81,18.23,2.34,17.64ZM458.31,408.99c-7.27-21.39-31.06-18.96-30.22,1.94,5.64,14.66,22.21,7.18,30.22-1.94ZM345.54,425.49c11.45,1.7,3.11-10.21,3.99-16.29-3.42-16.05-70.31,2.92-3.99,16.29ZM522.02,405.38c-11.88-24.81-38.21-4.1-24.93,9.35,9.7,5.47,24.39,6.09,24.93-9.35ZM704.99,340.74c9.7-1.73,21.31,2.51,20.15-11.64-7.18-16.97-48.66,1.93-20.15,11.64ZM238.18,322.67c-9.58-2.45-21.83,9.91-9.72,16.41,20.38,9.13,40.35-15.44,9.72-16.41ZM398.52,404.24c-30.89-1.51-5.15,28.57,12.33,14.99,9.87-9.32-2.95-16.03-12.33-14.99ZM550.8,404.43c-5.4.74-15.87-1.13-16.71,7.51,5.28,27.59,56.7-6.73,16.71-7.51ZM474.5,392.76c-24.08-4.34-12.28,24.16,5.87,18.04,12.45-5.96,9.98-22.52-5.87-18.04ZM600.6,607.73c6.94,13.4,11.47,33.78,25.11,40.3,2.85-7.14-17.88-51.57-25.11-40.3ZM342.96,603.72c-13.98,16.66-32.82,71.17-3.81,23.97,1.76-7.01,15.83-20.55,3.81-23.97ZM330.13,654.04c8.79,2.06,15.77-4.03,17.88-12.08,1.19-9.74,9.31-15.58,13.51-23.75-5.61-16.61-23.64,28.71-31.39,35.83ZM618.29,653.54c-3.21-7.21-39.25-64.98-27.44-29.92,11.08,8.28,8.89,34.89,27.44,29.92ZM740.1,459.59c-22.91.47-46.53-.03-68.82,2.11,7.33,8.75,22.02.27,32.73,3.82,9.88-2.73,32.99,4.4,36.09-5.93ZM208.35,460.46c7.82,9.9,28.25,1.79,40.32,5.45,70.82-3.2-18.56-8.15-40.32-5.45ZM444.36,492.6c3.56,11.59,18.9,28.69,21.42,9.45-5.93-3.01-17.04-21.26-21.42-9.45ZM504.77,491.63c-1.03-3.39-3.29-4.22-6-2.38-29.93,17.46-.93,34.26,6,2.38ZM716.48,486.56c-11.87-6.7-38.3,33.44-15.58,24.47,4.52-10.17,8.31-15.25,15.58-24.47ZM236.28,483.7c-4.96,7.53,5.72,12.71,8.03,19.68,17.14,26.8,17.6-6.89-8.03-19.68ZM740.49,436.19c-17.4,2.96-23.45,27.2-4.12,12.57,13.65-2.03,13.13,1.9,4.12-12.57ZM229.63,448.2c-11.81-12.21-33.66-10.61-25.3.86,11.62-6.82,10.94,14.63,25.3-.86ZM538.57,597.7c13.76,25.32,26.66,33.37,7.33.56-1.51-2.55-3.88-3.59-7.33-.56ZM318.64,497.12c10.59-3.23,5.77-13.83-3.19-14.74-5.29,4.34-7.94,14.62,3.19,14.74ZM638.92,488.63c-3.33-9.79-12.76-5.03-15.46,2.79,2.01,6.43,16.38,8.74,15.46-2.79ZM410.06,597.95c-5.74-7.42-20.91,21.7-15.86,25.64,5.28-8.27,9.77-16.99,15.86-25.64ZM611.07,483.32c4.09,3.43,7.36,2.22,10.01-.27,28.27-18.81,6.23-16.49-10.01.27ZM314.63,465.77c-5.64,6.74,10.02,14.19,15.09,18.28,19.1,4.28-9.65-14.13-15.09-18.28ZM374.79,648.64c10.14-.54,18.65-9.54,13.06-17.36-6.21,2.26-8.1,11.5-13.06,17.36ZM574.24,648.66c-4.91-6.49-6.59-13.76-13.04-17.51-4.96,8.42,2.54,16.82,13.04,17.51ZM569.3,287.09c-6.62,8.05-3.3,16.85-5.71,25.39,6.07-2.15,8.41-14.32,5.71-25.39ZM751.27,321.57c-6.35,1.41-7.34,19.13-4.42,25.21,6.1-6.57,3.83-16.88,4.42-25.21ZM203.03,347.9c2.26-9.31-.61-23.89-4.86-26.53.3,8.71-2.28,20.16,4.86,26.53ZM379.44,287.74c-2.06,12.45.06,22.82,4.76,24.23,1.69-7.83-.62-20.42-4.76-24.23ZM363.88,300.8c3.68-3.01,1.84-19.56-3.06-22.8,2.7,7.83-3.95,15.74,3.06,22.8ZM587.78,278.81c-4.33.07-8.39,19.77-2.49,21.84,6.79-6.81.47-14.73,2.49-21.84ZM372.42,593.1c-9.67,1.04-13.51,6.9-8.89,14.72,5.04-1.18,5.26-9.45,8.89-14.72ZM583.71,608.08c9.03-5.03,1.87-15.38-6.58-13.92,2.18,4.62,4.3,9.09,6.58,13.92ZM578.11,402.5c-4.72,1.87-7.19,11.15-5.33,18.33,4.12-5.88,3.09-12.05,5.33-18.33ZM732.28,338.58c3.13-1.83,5.72-11.31,4.87-16.72-3.37,1.26-5.29,7.65-4.87,16.72ZM210.38,321.54c2.82,6.09,1.26,12.47,5.91,18.11,1.38-8.7-.89-16.61-5.91-18.11ZM372.36,403.04c.58,5.71-.08,11.8,4.16,16.47-.34-5.78.94-11.96-4.16-16.47Z"/>
      <path d="M474.2,368.05c-8.06-3.87-29.24-7.28-23.28-19.89,11.52-1.49,27.44,13.49,41.48-.3,21.68,1.47-8.65,20.74-18.2,20.19Z"/>
    </g>
  </g>
</svg>